<?xml version="1.0" encoding="UTF-8"?>
<svg width="24" height="24" viewBox="0 0 24 24" fill="none" xmlns="http://www.w3.org/2000/svg">
    <path d="M15.07 2H8.93C3.33 2 2 3.33 2 8.93V15.07C2 20.67 3.33 22 8.93 22H15.07C20.67 22 22 20.67 22 15.07V8.93C22 3.33 20.67 2 15.07 2ZM18.15 16.27H16.69C16.14 16.27 15.97 15.97 14.86 14.94C13.86 14.08 13.49 13.88 13.27 13.88C12.88 13.88 12.75 14.03 12.75 14.53V15.69C12.75 16.05 12.59 16.27 11.73 16.27C10.29 16.27 8.81 15.32 7.8 13.59C5.84 10.15 5.19 8.42 5.19 8.05C5.19 7.91 5.28 7.75 5.5 7.75H6.96C7.3 7.75 7.46 7.92 7.6 8.3C8.23 10.07 9.32 11.59 9.77 11.59C9.96 11.59 10.05 11.5 10.05 11.06V9.28C10.02 8.57 9.82 8.42 9.82 8.21C9.82 8.05 9.94 7.88 10.11 7.75H12.37C12.65 7.75 12.75 7.92 12.75 8.21V10.47C12.75 10.84 12.9 11.01 12.96 11.01C13.14 11.01 13.34 10.9 13.66 10.59C14.56 9.57 15.31 8.21 15.31 8.21C15.41 8.03 15.59 7.88 15.9 7.88H17.36C17.6 7.88 17.71 8.05 17.6 8.27C17.5 8.5 16.41 10.07 16.41 10.07C16.27 10.29 16.21 10.5 16.41 10.71C16.56 10.9 17.08 11.5 17.43 11.96C18.55 13.37 19.09 14.13 19.21 14.42C19.39 14.79 19.26 15 18.15 16.27Z" fill="#4C75A3"/>
</svg> 